<?xml version="1.0" standalone="no"?>
<!DOCTYPE svg PUBLIC "-//W3C//DTD SVG 20010904//EN"
 "http://www.w3.org/TR/2001/REC-SVG-20010904/DTD/svg10.dtd">
<svg version="1.0" xmlns="http://www.w3.org/2000/svg"
 width="512.000000pt" height="512.000000pt" viewBox="0 0 512.000000 512.000000"
 preserveAspectRatio="xMidYMid meet">
<metadata>
Created by potrace 1.14, written by Peter Selinger 2001-2017
</metadata>
<g transform="translate(0.000000,512.000000) scale(0.100000,-0.100000)"
fill="#000000" stroke="none">
<path d="M2359 3741 c-14 -4 -36 -14 -50 -22 -17 -10 -64 -14 -164 -14 -120 0
-149 -3 -207 -23 -82 -29 -176 -88 -214 -136 -16 -20 -35 -36 -43 -36 -22 0
-143 -50 -175 -73 -15 -11 -40 -38 -55 -61 -55 -86 -103 -145 -121 -151 -26
-8 -121 -102 -159 -159 -40 -58 -80 -167 -81 -217 0 -31 -7 -42 -45 -73 -124
-102 -139 -261 -37 -377 l31 -35 -82 -34 c-209 -85 -382 -193 -508 -319 -199
-198 -183 -315 52 -378 54 -14 114 -17 371 -17 l307 -1 42 -44 c64 -66 135
-95 242 -98 84 -2 89 -4 140 -42 28 -21 69 -46 91 -55 55 -23 150 -21 203 5
56 27 116 96 139 160 18 49 21 52 75 69 64 19 138 67 163 105 l17 26 54 -55
c130 -132 311 -189 484 -152 182 39 306 143 398 334 0 2 22 -13 49 -33 207
-158 483 -138 662 49 71 74 108 144 128 240 9 39 16 71 17 72 1 1 66 27 144
58 483 188 663 350 551 497 -41 53 -143 110 -253 141 -109 30 -351 31 -497 1
l-98 -20 0 42 c0 82 -76 188 -156 217 -25 9 -33 19 -43 57 -43 161 -238 304
-444 326 -59 7 -70 11 -88 37 -56 78 -165 119 -260 99 -45 -10 -52 -9 -72 10
-54 53 -168 75 -245 48 -25 -9 -37 -7 -73 12 -47 23 -146 34 -190 20z m178
-57 c50 -24 53 -25 98 -10 25 9 56 16 69 16 51 0 155 -50 156 -75 0 -9 -262
-266 -425 -417 -61 -56 -61 -56 -98 -45 -24 8 -39 19 -42 32 -2 11 -11 112
-20 225 -8 113 -18 215 -20 228 -4 16 0 24 12 28 10 3 36 14 58 24 61 28 149
26 212 -6z m-322 -20 c8 -4 15 -31 20 -77 3 -40 10 -112 15 -162 5 -49 12
-128 16 -175 l6 -85 -35 -18 -34 -18 -236 178 c-130 98 -236 182 -236 187 -1
17 88 95 137 120 49 25 133 51 187 60 33 4 138 -2 160 -10z m871 -63 c45 -20
104 -85 104 -114 0 -10 -18 -82 -41 -160 -22 -77 -41 -148 -42 -158 -1 -12 -9
-17 -27 -16 -24 2 -29 15 -97 217 -40 118 -73 220 -73 227 0 27 118 30 176 4z
m-131 -231 c37 -113 72 -211 78 -217 7 -9 5 -13 -6 -13 -18 0 -67 -55 -67 -76
0 -12 -44 -14 -273 -14 l-273 0 -10 33 -11 32 241 237 c133 130 244 233 247
230 4 -4 37 -99 74 -212z m-1265 -104 l0 -214 -31 -12 c-49 -21 -93 -110 -54
-110 8 0 15 -7 15 -15 0 -8 -5 -15 -11 -15 -6 0 -9 -6 -7 -12 3 -7 13 -13 24
-13 11 0 19 -7 19 -18 0 -40 69 -49 124 -16 25 15 31 23 22 32 -17 17 -13 27
9 27 13 0 20 7 20 20 0 11 -7 20 -15 20 -18 0 -19 12 -4 27 17 17 -11 56 -50
73 l-31 12 0 205 c0 152 3 202 12 197 6 -4 70 -52 142 -107 72 -55 172 -131
223 -169 88 -67 92 -71 86 -101 -3 -18 -8 -35 -12 -39 -5 -5 -322 -68 -345
-68 -3 0 -6 -5 -6 -11 0 -8 14 -10 43 -6 39 5 245 42 293 52 15 3 25 -3 34
-21 8 -14 27 -33 43 -42 29 -17 29 -17 22 -89 -7 -80 9 -104 20 -30 12 80 17
97 27 97 5 0 25 7 43 16 l34 16 212 -191 c117 -105 216 -191 221 -191 4 0 8 4
8 9 0 6 -274 259 -393 362 -24 20 -27 29 -21 57 l7 33 269 -1 269 -2 10 -26
c13 -33 48 -72 66 -72 10 0 11 -5 3 -17 -17 -33 -98 -298 -92 -307 10 -17 27
23 72 166 l45 144 33 1 c40 1 79 26 94 59 13 27 18 28 107 11 60 -11 65 -14
73 -42 11 -44 60 -93 101 -100 45 -9 103 18 122 56 18 34 20 100 3 117 -9 9
-9 12 1 12 7 0 32 14 56 30 24 17 46 30 48 30 5 0 5 -1 -113 -364 -74 -228
-85 -276 -61 -250 5 5 54 149 110 321 l102 312 26 -10 c79 -30 136 -110 137
-193 1 -28 -3 -65 -7 -82 -7 -28 -5 -33 31 -58 57 -39 92 -109 92 -182 0 -33
-4 -64 -8 -70 -4 -6 -95 -32 -202 -59 -107 -26 -199 -52 -204 -56 -23 -21 10
-18 124 11 67 17 124 29 126 27 2 -2 -53 -30 -124 -62 -70 -32 -130 -60 -134
-62 -4 -2 -5 10 -2 27 5 23 3 30 -10 30 -19 0 -22 26 -3 33 8 3 3 14 -16 33
-22 23 -29 26 -36 15 -10 -16 -31 -6 -31 15 0 24 -60 7 -95 -27 -23 -22 -27
-31 -17 -41 16 -16 15 -28 -3 -28 -17 0 -20 -32 -5 -60 7 -12 17 -16 31 -13
18 5 20 3 15 -14 -5 -15 -1 -23 11 -28 16 -6 14 -9 -11 -22 -15 -8 -41 -16
-58 -18 -25 -4 -29 -1 -26 18 5 33 -55 46 -106 22 -43 -21 -65 -53 -45 -66 11
-7 11 -11 1 -21 -10 -10 -14 -9 -18 7 -5 21 -39 32 -526 166 -65 18 -116 34
-115 35 1 2 63 19 137 38 l134 36 21 -24 c45 -53 115 -62 164 -20 32 26 41 54
19 54 -8 1 -6 6 5 14 25 19 20 71 -7 71 -11 0 -21 6 -23 12 -3 8 4 12 19 11
17 -1 74 39 211 152 173 142 202 170 178 170 -5 0 -94 -70 -198 -155 -151
-124 -192 -153 -210 -148 -13 3 -23 1 -23 -6 0 -6 -7 -8 -15 -5 -8 4 -13 10
-10 14 10 16 -16 21 -51 10 -29 -10 -34 -15 -28 -32 5 -17 3 -20 -14 -16 -16
5 -23 -1 -31 -25 -14 -40 -14 -47 4 -47 8 0 15 -7 15 -15 0 -18 -12 -19 -27
-4 -10 10 -106 -11 -305 -67 -11 -3 -38 23 -91 91 -42 53 -78 91 -82 85 -4 -6
25 -52 65 -104 l71 -93 -36 -83 c-25 -58 -32 -86 -25 -95 5 -6 7 -15 3 -18
-11 -12 -23 -8 -23 8 0 33 -109 7 -123 -30 -4 -8 -2 -15 3 -15 6 0 10 -7 10
-15 0 -21 -21 -19 -27 3 -6 24 -170 87 -187 72 -7 -5 -16 -7 -19 -3 -12 11 -8
23 8 23 21 0 20 54 -2 90 -16 28 -16 29 18 72 44 54 129 175 129 182 0 3 -6 6
-12 6 -17 -1 -163 -208 -163 -231 0 -10 -4 -18 -10 -16 -5 1 -9 7 -7 13 4 19
-31 27 -40 9 -11 -19 -28 -20 -28 0 0 8 5 15 10 15 6 0 10 28 10 64 l0 65 100
53 c93 49 117 68 88 68 -6 0 -58 -25 -115 -55 -57 -30 -150 -73 -206 -96 -106
-43 -125 -54 -114 -65 3 -4 52 12 108 35 55 23 102 41 104 39 2 -2 7 -27 11
-56 6 -45 4 -52 -12 -58 -34 -12 -74 -57 -80 -90 -8 -42 17 -95 57 -118 41
-24 102 -16 138 18 l27 25 89 -33 c90 -34 90 -34 93 -71 5 -62 59 -122 85 -96
15 15 27 14 27 -4 0 -8 -6 -15 -14 -15 -13 0 -16 -11 -31 -106 l-6 -40 -107
-18 c-147 -24 -573 -86 -593 -86 -14 0 -15 11 -13 73 2 39 7 155 10 257 l6
185 38 18 c58 27 93 113 50 124 -22 6 -25 14 -9 30 7 7 3 17 -17 32 -54 42
-107 40 -155 -9 -16 -16 -29 -37 -29 -48 0 -18 -11 -20 -161 -26 -89 -4 -164
-4 -168 -1 -3 4 106 116 243 249 157 153 245 245 238 250 -7 4 -102 -82 -249
-227 -271 -267 -279 -272 -333 -211 -43 50 -60 93 -60 156 0 69 29 127 90 178
47 39 55 42 277 91 125 28 232 55 237 60 22 20 -7 19 -105 -5 -211 -50 -350
-78 -356 -72 -10 10 26 137 51 181 39 66 99 133 159 178 54 41 100 94 146 169
28 47 61 71 142 102 35 13 65 25 67 25 1 1 2 -95 2 -213z m1681 198 c167 -49
330 -202 329 -310 0 -25 -10 -35 -63 -70 -60 -40 -63 -40 -81 -23 -25 24 -78
34 -105 20 -16 -9 -21 -9 -21 0 0 6 -43 96 -95 200 -52 103 -95 190 -95 193 0
12 78 6 131 -10z m39 -393 c0 -4 -9 -16 -20 -26 -11 -10 -20 -24 -20 -32 0
-15 -4 -15 -93 0 -68 12 -69 13 -82 52 -8 22 -27 51 -43 64 l-28 23 43 147
c23 80 43 151 43 156 0 11 200 -371 200 -384z m-1690 -36 c0 -8 -7 -15 -15
-15 -8 0 -15 7 -15 15 0 8 7 15 15 15 8 0 15 -7 15 -15z m2779 -190 c134 -32
261 -118 261 -179 0 -65 -112 -161 -295 -251 -116 -57 -352 -155 -374 -155 -5
0 -12 17 -16 38 -4 20 -16 64 -27 96 -19 54 -20 65 -8 127 21 109 -1 182 -77
255 l-43 41 77 17 c178 38 369 42 502 11z m-502 -387 c-2 -7 7 -44 20 -82 12
-38 23 -84 23 -102 l0 -33 -152 -50 c-174 -56 -305 -95 -495 -145 -106 -27
-133 -32 -133 -20 0 21 -21 17 -27 -5 -4 -15 -26 -23 -116 -41 l-112 -21 -210
45 c-115 26 -238 52 -273 60 -34 7 -65 10 -67 5 -9 -13 6 -17 176 -54 90 -19
198 -43 239 -52 l75 -16 -65 -14 c-65 -14 -549 -103 -558 -103 -5 0 7 106 15
126 3 7 20 18 39 24 40 14 80 58 64 74 -14 14 -12 26 5 26 8 0 15 4 15 9 0 19
-22 67 -40 86 -18 20 -17 22 14 97 18 43 35 80 38 83 4 5 315 -79 636 -171 47
-13 52 -17 52 -44 0 -16 11 -42 26 -59 25 -30 54 -41 54 -21 0 6 5 10 10 10 6
0 10 -7 10 -15 0 -20 49 -20 79 1 25 18 51 71 51 104 0 13 -7 20 -20 20 -20 0
-26 11 -13 23 3 4 11 3 18 -3 7 -6 30 0 65 17 45 20 51 27 36 32 -15 6 -9 11
30 27 27 10 53 21 59 23 5 2 4 -3 -4 -12 -7 -10 -11 -17 -8 -17 7 0 408 187
414 194 11 11 35 6 30 -6z m-2507 -107 c0 -5 -6 -11 -12 -14 -18 -6 9 -54 45
-81 27 -20 29 -20 41 -3 7 9 16 17 20 17 11 0 6 -28 -6 -32 -10 -4 -15 -66
-20 -244 -3 -131 -7 -248 -7 -260 -1 -19 -12 -21 -168 -37 -93 -10 -175 -17
-184 -17 -18 0 -39 65 -39 121 0 25 -13 45 -60 95 -67 73 -84 115 -84 214 0
72 23 134 67 186 l27 31 170 5 c112 3 174 8 182 16 14 14 28 16 28 3z m-479
-103 c-19 -38 -27 -73 -29 -125 -6 -103 18 -171 84 -242 47 -51 52 -62 64
-129 6 -40 10 -75 8 -78 -3 -2 -94 -7 -204 -10 -211 -7 -371 4 -465 32 -55 17
-109 61 -109 90 0 94 224 304 444 416 76 39 207 96 222 97 6 1 -1 -23 -15 -51z
m3029 -80 c0 -7 -6 -35 -14 -63 -58 -221 -296 -376 -514 -336 -82 15 -172 57
-230 107 -72 62 -64 70 128 121 185 49 466 132 550 162 66 23 80 25 80 9z
m-830 -238 c0 -5 -9 -10 -19 -10 -11 0 -23 5 -26 10 -4 6 5 10 19 10 14 0 26
-4 26 -10z m-52 -27 c30 -5 33 -8 27 -32 -11 -43 -72 -136 -118 -178 -192
-177 -501 -175 -682 4 -84 82 -98 73 198 127 144 26 312 58 372 71 61 13 124
21 140 19 17 -3 45 -8 63 -11z m-917 -172 c-16 -29 -97 -78 -151 -91 -55 -13
-75 -33 -91 -93 -14 -52 -92 -132 -144 -146 -54 -15 -85 -14 -135 4 -45 16
-140 81 -140 96 0 6 76 124 116 177 4 6 461 70 507 71 44 1 47 -1 38 -18z
m-617 -113 c-56 -79 -55 -79 -52 -13 l3 60 40 5 c22 3 41 5 43 4 2 -1 -13 -26
-34 -56z m-74 -28 c0 -68 -1 -71 -27 -81 -67 -26 -204 15 -267 80 l-37 38 133
15 c73 8 148 16 166 17 l32 1 0 -70z"/>
<path d="M1810 2877 c0 -11 298 -167 320 -167 35 0 -10 30 -150 100 -88 44
-162 80 -165 80 -3 0 -5 -6 -5 -13z"/>
<path d="M2182 2760 c-27 -17 -31 -24 -26 -45 5 -20 3 -24 -10 -19 -13 5 -16
-1 -16 -35 0 -30 3 -39 14 -35 17 6 31 -12 16 -21 -6 -4 -8 -11 -4 -16 4 -6
11 -6 20 2 8 6 15 8 15 3 1 -5 2 -16 3 -24 0 -9 13 -16 30 -18 44 -5 74 5 72
25 0 11 5 17 15 15 40 -6 57 83 25 132 -20 32 -58 54 -64 37 -5 -16 -32 -13
-32 4 0 20 -19 19 -58 -5z"/>
<path d="M3024 2468 c-3 -5 -4 -11 -2 -13 8 -9 330 -77 335 -71 13 13 -5 18
-290 85 -23 6 -39 5 -43 -1z"/>
<path d="M3362 2268 c-14 -14 -16 -38 -4 -38 14 0 43 36 35 43 -9 10 -17 9
-31 -5z"/>
</g>
</svg>
